<svg width="121" height="176" viewBox="0 0 121 176" fill="none" xmlns="http://www.w3.org/2000/svg">
<path d="M58 114L47.5444 114.455C46.8664 114.484 46.2162 114.732 45.6909 115.162V115.162C43.7194 116.775 44.3855 119.94 46.8398 120.622L59 124L66.1068 125.421C69.6935 126.139 73.3423 126.5 77 126.5V126.5" stroke="#333D48"/>
<path d="M20.5 146V146C21.773 141.545 24.8786 137.84 29.0431 135.808L43 129L57 123.5" stroke="#2D9CDB"/>
<path d="M1 135V135C3.57821 130.81 7.59288 127.702 12.2947 126.255L31 120.5L44.5 117.5" stroke="#333D48"/>
<path d="M96 127.5L90.7739 136.052C90.5948 136.345 90.5 136.682 90.5 137.025V137.025C90.5 138.265 91.6871 139.161 92.8795 138.82L93.5721 138.622C93.855 138.541 94.1207 138.41 94.356 138.233L98 135.5" stroke="#333D48"/>
<path d="M39 110V110C40.2931 106.444 40.3115 102.549 39.0522 98.9813L38.9704 98.7494C38.3281 96.9297 38 95.0141 38 93.0844V87.6367C38 84.2216 38.3583 80.8161 39.069 77.4758L39.5269 75.3236C41.8101 64.5927 46.6064 54.5349 53.5 46V46L63.7823 32.6711C65.8479 29.9935 68.8643 28.2132 72.2067 27.699V27.699C73.0668 27.5666 73.9378 27.5199 74.8071 27.5594L95.5 28.5" stroke="#333D48"/>
<path d="M56 113V113C53.105 109.462 51.6368 104.969 51.8836 100.404L52.2878 92.9258C52.4289 90.3157 52.8414 87.7274 53.5188 85.2027L58 68.5L60.1436 63.294C61.0234 61.1574 62.5812 59.3693 64.5771 58.205V58.205C66.4779 57.0962 68.6781 56.6105 70.8691 56.8159L77.0645 57.3967C81.3059 57.7943 85.4134 59.0934 89.1121 61.2069L94 64" stroke="#333D48"/>
<path d="M86.5 124L85.5 108.5L85.7996 103.407C86.2652 95.4913 87.5701 87.6476 89.6923 80.0077L94 64.5L102 45.5L104.31 40.4174C105.948 36.8137 109.541 34.5 113.5 34.5V34.5" stroke="#333D48"/>
<path d="M62.5 59.5C62.5 57.3333 62.5 52.8 62.5 52C62.5 51.4326 63.003 48.1488 63.474 45.2168C63.818 43.075 64.3603 40.9706 65.0769 38.923L65.7442 37.0167C66.904 33.7029 68.6881 30.6422 71 28V28" stroke="#333D48"/>
<path d="M69.5 118V107.169C69.5 98.7499 70.4493 90.3575 72.33 82.151L75 70.5L79.5 57.5" stroke="#2D9CDB"/>
<path d="M90 124V124C91.6393 122.689 93.5872 121.819 95.658 121.474L95.9702 121.422C97.6418 121.143 99.246 120.552 100.699 119.68L105.047 117.072C105.68 116.692 106.264 116.236 106.786 115.714V115.714C107.909 114.591 108.715 113.192 109.125 111.658L110.5 106.5L115 84L117.697 74.2241C118.564 71.0791 119.195 67.8736 119.584 64.6343L119.804 62.7984C120.266 58.9461 120.275 55.0529 119.831 51.1985L119.376 47.2628C119.127 45.0991 118.564 42.9831 117.706 40.9812L116.85 38.9824C116.288 37.6728 115.482 36.4824 114.475 35.4749V35.4749C113.827 34.8274 113.103 34.2618 112.318 33.7907L110.186 32.5115C109.064 31.8386 108.008 31.0627 107.031 30.1938L105.502 28.8349C104.51 27.9531 103.695 26.8901 103.101 25.7029V25.7029C102.377 24.2542 102 22.6568 102 21.0371V13.6321C102 12.2222 101.746 10.8238 101.251 9.50366V9.50366C100.755 8.17877 100.023 6.95444 99.0909 5.88955L98.1268 4.78773C97.3808 3.93521 96.4979 3.21308 95.5144 2.65106V2.65106C94.1884 1.89339 92.7091 1.44351 91.1859 1.3347L87.6167 1.07976C86.8735 1.02668 86.1271 1.0339 85.3851 1.10136L84.1312 1.21535C82.0944 1.40051 80.1657 2.21513 78.6128 3.54615V3.54615C77.875 4.17857 77.2348 4.91669 76.7131 5.73654L74.8207 8.7104C74.2743 9.56895 73.7925 10.4669 73.3792 11.3968L73.2614 11.6619C72.4261 13.5412 71.905 15.5449 71.7188 17.593L71.591 18.9988C71.5306 19.6635 71.5555 20.3333 71.6653 20.9917V20.9917C71.8848 22.3086 72.4379 23.5474 73.2719 24.5899L74 25.5L76 27.5" stroke="#333D48"/>
<path d="M81 28L80.6624 24.9616C80.5598 24.0378 80.8826 23.1174 81.5398 22.4602V22.4602C82.1512 21.8488 82.9927 21.5246 83.8562 21.5678L87.3477 21.7424C90.5007 21.9 93.2885 23.8399 94.5321 26.7416V26.7416C95.1637 28.2153 96.2103 29.4735 97.5444 30.3629L98.5 31V31C99.4781 31.6521 100.627 32 101.803 32H104.5V32C106.032 32 107.433 31.1343 108.118 29.7639L108.739 28.5229C108.912 28.175 109.054 27.8118 109.161 27.4379L109.332 26.8363C109.774 25.2921 109.925 23.6796 109.78 22.0801L109.692 21.1091C109.564 19.7077 109.275 18.3258 108.83 16.9909L108.365 15.5951C107.79 13.8696 107.038 12.2082 106.122 10.6372L105.447 9.48011C104.488 7.83707 103.276 6.35618 101.854 5.09245L100.633 4.00694C99.8833 3.3407 99.0239 2.80954 98.0928 2.4371V2.4371C97.3676 2.14703 96.6065 1.95628 95.8303 1.87003L92.5 1.5" stroke="#333D48"/>
<path d="M85 28L87.4338 25.9718C87.81 25.6583 88.2212 25.3894 88.6592 25.1704V25.1704C89.5409 24.7295 90.5132 24.5 91.4991 24.5H93" stroke="#333D48"/>
<path d="M98 121V121C98 114.028 98.8786 107.083 100.615 100.331L102.5 92.9999L108 76.4999L112.5 63.4999C113.333 59.8333 115 52.3999 115 51.9999C115 51.5999 115.667 45.8333 116 42.9999V37.5" stroke="#333D48"/>
<path d="M55.5 164L55.3435 166.504C55.142 169.728 57.176 172.67 60.2631 173.619V173.619C65.1266 175.116 70.4121 174.206 74.4948 171.168L99.3719 152.662C105.43 148.156 109 141.05 109 133.5V133.5L110.343 121.411C110.445 120.496 110.243 119.572 109.77 118.783V118.783C108.534 116.723 105.828 116.115 103.83 117.447L103.162 117.892C102.095 118.603 101.345 119.699 101.067 120.95L98.5 132.5" stroke="#333D48"/>
<path d="M55.5 164V164C49.2132 163.669 43.0298 162.262 37.2186 159.841L9.71581 148.382C6.06673 146.861 3.20294 143.908 1.79563 140.214V140.214C0.633152 137.162 0.542056 133.806 1.53728 130.696L2.19189 128.65C3.37315 124.959 5.57488 121.677 8.54261 119.184L10.3141 117.696C14.3586 114.299 19.2664 112.09 24.4914 111.316L30.7415 110.39C39.1147 109.15 47.6651 110.018 55.6179 112.917L97 128" stroke="#333D48"/>
<path d="M1 135.5V135.5C13.1689 144.051 27.148 149.677 41.8479 151.938L45.5 152.5" stroke="#333D48"/>
<path d="M56.9004 164.23L55.0086 163.97C49.7726 163.249 45.7542 158.964 45.3713 153.693C45.1355 150.448 46.3237 147.261 48.6262 144.962L56.5809 137.02C60.7876 132.82 65.9754 129.735 71.6746 128.045L84.8537 124.138C87.3235 123.406 89.9774 123.619 92.2985 124.736L93.5541 125.34C97.2975 127.142 99.239 131.344 98.1848 135.363C97.6955 137.228 96.5989 138.877 95.0681 140.05L66.987 161.563C64.1156 163.762 60.4838 164.723 56.9004 164.23Z" stroke="#333D48"/>
<path d="M60.5 61.5L65 57.5L69.5 56.5L79 57.5L76.5 65L74.5 70.5L71.5 83.5L70.5 89.5L69.5 97.5L69 103.5V113V117.5L62 115.5L56.5 113.5L54 109.5L51.5 104L53 87L56.5 72L60.5 61.5Z" fill="#333D48"/>
<path d="M77.5 65L80 57.5L86 60L94 64L88.5 87.5L86 101.5L85.5 116.5L86.5 124L78 121.5L70 118V113V107.5V105.5V104V101L71 92L72 84.5L75.5 70.5L77.5 65Z" fill="#333D48"/>
<path d="M71.0003 28.5002L72.5003 28.0002L87.0006 28.501L95.5002 29.0009L98.0002 31.5002L100.5 32.5009L104.5 32.5009L105 32.5003L105.5 32.4998L106.5 31.9999L107.633 31.2569L110.5 32.9999L112 34L109 35L106.5 36.5L104.5 39L98 53.5L94 63.5L88.5 60.5L84 58.5002L79 57L71.5 56.5L68 56.5L65 57.5L63.0003 58.5002L63.0003 52.0002L64.5003 42.5002L67.5004 34.001L69.0003 31.5002L71.0003 28.5002Z" fill="#2D9CDB"/>
<path d="M1.14111 135L5.14111 130.5L9.14111 128L11.6411 126.5L31.6411 120.5L44.1411 118L45.1411 120L57.1411 123L41.1411 129.5L29.1411 135.5L26.1411 137L23.6411 139.5L22.1411 141.5L21 143.5L20.1411 145.5L10.1411 141L1.14111 135Z" fill="#333D48"/>
<path d="M21 146L21.5 144.5L23 141.5L24.5 139.5L27 137.5L37.5 132L43 129.5L57 124L63 124.5L70 126L75 126.5L64 131L55 138L50.5 143L47.5 146L46 148L45 150.5V152.5L31.5 149.5L21 146Z" fill="#333D48"/>
</svg>
