<svg width="82" height="80" viewBox="0 0 82 80" fill="none" xmlns="http://www.w3.org/2000/svg">
<path d="M63.8458 62.1764L62.4655 61.589L63.91 61.1846C62.9521 57.7637 62.6335 54.1625 62.9866 50.6311L63.8138 42.3592C63.9194 41.3036 63.9229 40.2403 63.8243 39.184L62.895 29.2276C62.6034 26.1031 62.9435 22.952 63.8949 19.9617L62.4655 19.5069L63.8363 18.8976L59.4527 9.03463L59.0568 8.14384L58.082 8.14384L31.6533 8.14384C30.5988 8.14384 29.6157 7.61127 29.0397 6.72804L28.843 6.42654C28.1929 5.42963 28.2879 4.12139 29.0754 3.22894C29.5637 2.67558 30.2607 2.35115 30.9985 2.33389L65.6551 1.52322C65.9963 1.51524 66.3313 1.61501 66.6126 1.80838C68.1095 2.83749 69.2649 4.29024 69.9307 5.98035L71.565 10.1289L73.0833 15.3587C73.4525 16.6304 74.2056 17.7568 75.2395 18.584C76.9982 19.9909 78.1888 21.9863 78.5916 24.2022L79.4586 28.9702C79.5498 29.4719 79.5957 29.9808 79.5957 30.4907L79.5957 38.7945L79.5957 48.7838C79.5957 49.2084 79.5638 49.6325 79.5005 50.0524L78.4663 56.9035C78.1359 59.0925 76.9581 61.0638 75.1871 62.392C74.2083 63.1262 73.4765 64.1414 73.0896 65.3022L71.348 70.5272L71.3439 70.5394L69.8092 75.0154C69.2635 76.607 68.0348 77.8712 66.4594 78.462C66.3923 78.4871 66.3212 78.5 66.2496 78.5L31.0303 78.5C30.2843 78.5 29.5769 78.1687 29.0993 77.5956C28.3386 76.6827 28.3211 75.3617 29.0575 74.4289L29.0982 74.3773C29.5903 73.754 30.3407 73.3904 31.1347 73.3904L58.082 73.3904L59.0738 73.3904L59.4622 72.4777L63.8458 62.1764Z" stroke="black" stroke-width="3"/>
<path d="M7.6134 8.73277L19.5212 8.73277C20.4589 11.1607 22.1748 13.2238 24.4163 14.5882L24.6848 14.7517C25.7448 15.3969 26.9559 15.752 28.1965 15.7813L52.6159 16.3581C53.1726 16.3713 53.6663 16.7191 53.8662 17.2388C54.0271 17.6572 54.0641 18.113 53.9727 18.5519L53.5959 20.3606C53.2438 22.0503 53.1214 23.7797 53.2318 25.5021L54.1681 40.1089L53.2723 53.9044C53.1361 56.0024 53.2418 58.1092 53.5875 60.183L54.0123 62.732C54.0898 63.1974 54.0524 63.6746 53.9032 64.1222C53.659 64.855 52.9732 65.3492 52.2008 65.3492L28.4151 65.3492C27.028 65.3492 25.6655 65.759 24.5084 66.5136C22.2062 68.015 20.4439 70.2307 19.5031 72.8013L7.63631 72.8013C6.21218 70.3832 5.18238 67.7516 4.5874 65.0055L2.80294 56.7696L2.10783 47.6173C1.70651 42.3333 1.73226 37.0256 2.18482 31.7458L2.80139 24.5524L4.62633 16.1296C5.19392 13.51 6.20475 11.0086 7.6134 8.73277Z" stroke="black" stroke-width="3"/>
</svg>
