<svg width="61" height="80" viewBox="0 0 61 80" fill="none" xmlns="http://www.w3.org/2000/svg">
<path d="M15.6679 62.1371L11.2715 63.3736L6.53116 62.1188V25.0243C6.53116 23.6299 7.45856 22.4057 8.80086 22.0282C10.1932 21.6366 11.6651 21.6252 13.0633 21.9954L13.1859 22.0278C14.649 22.4151 15.6679 23.7389 15.6679 25.2523V62.1371ZM30.2545 60.4941L19.4035 61.6111V25.0241V24.804L19.3402 24.5931L18.7886 22.7542L18.6799 22.392L18.4125 22.1246L18.1163 21.8283V21.3752H22.0122H23.5122H26.9141H28.4141H30.4081H31.6664V21.3754L33.1667 21.3752H42.6998V21.7287L42.3434 22.0139L42.0345 22.261L41.8877 22.6281L41.1521 24.467L41.0448 24.7353V25.0241V61.6059L30.5662 60.4946L30.4104 60.4781L30.2545 60.4941ZM25.4141 18.3752H25.0122V17.1162H23.5122V15.6163C21.5798 15.6163 20.0258 14.0265 20.0697 12.0946L20.1005 10.7408C20.2054 6.12279 23.9791 2.43389 28.5983 2.43389H30.4081H30.4214L30.4348 2.43365L31.1098 2.4216C35.6769 2.34004 39.4919 5.88276 39.7481 10.4435L39.8492 12.2432C39.9521 14.0746 38.4947 15.6163 36.6603 15.6163V17.1162H35.1603V18.3749L34.6664 18.3749V17.1162V15.6163H33.1664H26.9141H25.4141V17.1162V18.3752ZM10.1512 73.2586V77.9551H7.42173H4.10469L2.09336 65.313L5.96287 66.3373C8.53406 67.6835 10.1512 70.3482 10.1512 73.2586ZM49.8885 63.3736L45.1482 62.1188V25.0243C45.1482 23.6299 46.0756 22.4057 47.4179 22.0282C48.8103 21.6366 50.2821 21.6252 51.6804 21.9954L51.8029 22.0278C53.266 22.4151 54.285 23.7389 54.285 25.2523V62.1371L49.8885 63.3736ZM50.8488 73.2586C50.8488 70.3482 52.4659 67.6835 55.0371 66.3373L58.8795 65.3202L56.7257 77.9551H53.5783H50.8488V73.2586Z" stroke="black" stroke-width="3"/>
<path d="M13.2894 67.3176C24.599 65.0946 36.2323 65.096 47.5394 67.3205L46.5126 77.9615H14.4632L13.2894 67.3176Z" stroke="black" stroke-width="3"/>
</svg>
