<svg width="81" height="81" viewBox="0 0 81 81" fill="none" xmlns="http://www.w3.org/2000/svg">
<path d="M63.7193 62.9264L62.3391 62.339L63.7835 61.9346C62.8257 58.5137 62.507 54.9125 62.8601 51.3811L63.6873 43.1092C63.7929 42.0536 63.7964 40.9903 63.6978 39.934L62.7686 29.9776C62.4769 26.8531 62.817 23.702 63.7685 20.7117L62.3391 20.2569L63.7098 19.6476L59.3262 9.78463L58.9303 8.89384H57.9555H31.5268C30.4724 8.89384 29.4892 8.36127 28.9132 7.47804L28.7166 7.17654C28.0664 6.17963 28.1615 4.87139 28.9489 3.97894C29.4372 3.42558 30.1343 3.10115 30.872 3.08389L65.5286 2.27322C65.8698 2.26524 66.2049 2.36501 66.4861 2.55838C67.983 3.58749 69.1384 5.04024 69.8042 6.73035L71.4385 10.8789L72.9568 16.1087C73.326 17.3804 74.0791 18.5068 75.1131 19.334C76.8717 20.7409 78.0623 22.7363 78.4652 24.9522L79.3321 29.7202C79.4233 30.2219 79.4692 30.7308 79.4692 31.2407V39.5445V49.5338C79.4692 49.9584 79.4374 50.3825 79.374 50.8024L78.3399 57.6535C78.0095 59.8425 76.8317 61.8138 75.0607 63.142C74.0818 63.8762 73.3501 64.8914 72.9631 66.0522L71.2215 71.2772L71.2174 71.2894L69.6827 75.7654C69.137 77.357 67.9083 78.6212 66.3329 79.212C66.2658 79.2371 66.1947 79.25 66.1231 79.25H30.9038C30.1579 79.25 29.4504 78.9187 28.9729 78.3456C28.2121 77.4327 28.1946 76.1117 28.931 75.1789L28.9718 75.1273C29.4638 74.504 30.2142 74.1404 31.0083 74.1404H57.9555H58.9474L59.3357 73.2277L63.7193 62.9264Z" fill="#7F1D1D" stroke="black" stroke-width="3"/>
<path d="M8.3634 9.48277H20.2712C21.2089 11.9107 22.9248 13.9738 25.1663 15.3382L25.4348 15.5017C26.4948 16.1469 27.7059 16.502 28.9465 16.5313L53.3659 17.1081C53.9226 17.1213 54.4163 17.4691 54.6162 17.9888C54.7771 18.4072 54.8141 18.863 54.7227 19.3019L54.3459 21.1106C53.9938 22.8003 53.8714 24.5297 53.9818 26.2521L54.9181 40.8589L54.0223 54.6544C53.8861 56.7524 53.9918 58.8592 54.3375 60.933L54.7623 63.482C54.8398 63.9474 54.8024 64.4246 54.6532 64.8722C54.409 65.605 53.7232 66.0992 52.9508 66.0992H29.1651C27.778 66.0992 26.4155 66.509 25.2584 67.2636C22.9562 68.765 21.1939 70.9807 20.2531 73.5513H8.38631C6.96218 71.1332 5.93238 68.5016 5.3374 65.7555L3.55294 57.5196L2.85783 48.3673C2.45651 43.0833 2.48226 37.7756 2.93482 32.4958L3.55139 25.3024L5.37633 16.8796C5.94391 14.26 6.95475 11.7586 8.3634 9.48277Z" fill="#EF4444" stroke="black" stroke-width="3"/>
</svg>
