<svg width="61" height="79" viewBox="0 0 61 79" fill="none" xmlns="http://www.w3.org/2000/svg">
<path d="M15.4179 61.3871L11.0215 62.6236L6.28116 61.3688V24.2743C6.28116 22.8799 7.20856 21.6557 8.55086 21.2782C9.94323 20.8866 11.4151 20.8752 12.8133 21.2454L12.9359 21.2778C14.399 21.6651 15.4179 22.9889 15.4179 24.5023V61.3871ZM30.0045 59.7441L19.1535 60.8611V24.2741V24.054L19.0902 23.8431L18.5386 22.0042L18.4299 21.642L18.1625 21.3746L17.8663 21.0784V20.6252H21.7622H23.2622H26.6641H28.1641H30.1581H31.4164V20.6254L32.9167 20.6252H42.4498V20.9787L42.0934 21.2639L41.7845 21.511L41.6377 21.8781L40.9021 23.717L40.7948 23.9853V24.2741V60.8559L30.3162 59.7446L30.1604 59.7281L30.0045 59.7441ZM25.1641 17.6252H24.7622V16.3663H23.2622V14.8663C21.3298 14.8663 19.7758 13.2765 19.8197 11.3446L19.8505 9.99075C19.9554 5.37278 23.7291 1.68389 28.3483 1.68389H30.1581H30.1714L30.1848 1.68365L30.8598 1.6716C35.4269 1.59004 39.2419 5.13276 39.4981 9.69347L39.5992 11.4932C39.7021 13.3246 38.2447 14.8663 36.4103 14.8663V16.3663H34.9103V17.6249L34.4164 17.6249V16.3663V14.8663H32.9164H26.6641H25.1641V16.3663V17.6252ZM9.90122 72.5086V77.2051H7.17173H3.85469L1.84336 64.563L5.71287 65.5873C8.28406 66.9335 9.90122 69.5982 9.90122 72.5086ZM49.6385 62.6236L44.8982 61.3688V24.2743C44.8982 22.8799 45.8256 21.6557 47.1679 21.2782C48.5603 20.8866 50.0321 20.8752 51.4304 21.2454L51.5529 21.2778C53.016 21.6651 54.035 22.9889 54.035 24.5023V61.3871L49.6385 62.6236ZM50.5988 72.5086C50.5988 69.5982 52.2159 66.9335 54.7871 65.5873L58.6295 64.5702L56.4757 77.2051H53.3283H50.5988V72.5086Z" fill="#7F1D1D" stroke="black" stroke-width="3"/>
<path d="M13.0419 66.5622C24.3514 64.3392 35.9848 64.3406 47.2918 66.5651L46.2651 77.2061H14.2157L13.0419 66.5622Z" fill="#EF4444" stroke="black" stroke-width="3"/>
</svg>
