<svg width="61" height="79" viewBox="0 0 61 79" fill="none" xmlns="http://www.w3.org/2000/svg">
<path d="M15.6679 61.6371L11.2715 62.8737L6.53116 61.6189V24.5243C6.53116 23.1299 7.45856 21.9057 8.80086 21.5282C10.1932 21.1366 11.6651 21.1252 13.0633 21.4954L13.1859 21.5278C14.649 21.9151 15.6679 23.2389 15.6679 24.7524V61.6371ZM30.2545 59.9942L19.4035 61.1111V24.5242V24.304L19.3402 24.0931L18.7886 22.2542L18.6799 21.892L18.4125 21.6246L18.1163 21.3284V20.8752H22.0122H23.5122H26.9141H28.4141H30.4081H31.6664V20.8754L33.1667 20.8752H42.6998V21.2287L42.3434 21.5139L42.0345 21.761L41.8877 22.1282L41.1521 23.9671L41.0448 24.2353V24.5242V61.106L30.5662 59.9947L30.4104 59.9781L30.2545 59.9942ZM25.4141 17.8752H25.0122V16.6163H23.5122V15.1163C21.5798 15.1163 20.0258 13.5265 20.0697 11.5947L20.1005 10.2408C20.2054 5.62278 23.9791 1.93389 28.5983 1.93389H30.4081H30.4214L30.4348 1.93365L31.1098 1.9216C35.6769 1.84004 39.4919 5.38276 39.7481 9.94347L39.8492 11.7432C39.9521 13.5747 38.4947 15.1163 36.6603 15.1163V16.6163H35.1603V17.8749L34.6664 17.8749V16.6163V15.1163H33.1664H26.9141H25.4141V16.6163V17.8752ZM10.1512 72.7587V77.4552H7.42173H4.10469L2.09336 64.8131L5.96289 65.8374C8.53407 67.1836 10.1512 69.8483 10.1512 72.7587ZM49.8885 62.8737L45.1482 61.6189V24.5243C45.1482 23.1299 46.0756 21.9057 47.4179 21.5282C48.8103 21.1366 50.2821 21.1252 51.6804 21.4954L51.8029 21.5278C53.266 21.9151 54.285 23.2389 54.285 24.7524V61.6371L49.8885 62.8737ZM50.8488 72.7587C50.8488 69.8483 52.4659 67.1836 55.0371 65.8374L58.8795 64.8203L56.7257 77.4552H53.5783H50.8488V72.7587Z" fill="#064E3B" stroke="black" stroke-width="3"/>
<path d="M13.2921 66.8112C24.6017 64.5883 36.2351 64.5897 47.5421 66.8142L46.5153 77.4551H14.4659L13.2921 66.8112Z" fill="#10B981" stroke="black" stroke-width="3"/>
</svg>
