<svg width="81" height="80" viewBox="0 0 81 80" fill="none" xmlns="http://www.w3.org/2000/svg">
<path d="M62.9693 62.1764L61.5891 61.589L63.0335 61.1846C62.0757 57.7637 61.757 54.1625 62.1101 50.6311L62.9373 42.3592C63.0429 41.3036 63.0464 40.2403 62.9478 39.184L62.0186 29.2276C61.7269 26.1031 62.067 22.952 63.0185 19.9617L61.5891 19.5069L62.9598 18.8976L58.5762 9.03463L58.1803 8.14384H57.2055H30.7768C29.7224 8.14384 28.7392 7.61127 28.1632 6.72804L27.9666 6.42654C27.3164 5.42963 27.4115 4.12139 28.1989 3.22894C28.6872 2.67558 29.3843 2.35115 30.122 2.33389L64.7786 1.52322C65.1198 1.51524 65.4549 1.61501 65.7361 1.80838C67.233 2.83749 68.3884 4.29024 69.0542 5.98035L70.6885 10.1289L72.2068 15.3587C72.576 16.6304 73.3291 17.7568 74.3631 18.584C76.1217 19.9909 77.3123 21.9863 77.7152 24.2022L78.5821 28.9702C78.6733 29.4719 78.7192 29.9808 78.7192 30.4907V38.7945V48.7838C78.7192 49.2084 78.6874 49.6325 78.624 50.0524L77.5899 56.9035C77.2595 59.0925 76.0817 61.0638 74.3107 62.392C73.3318 63.1262 72.6001 64.1414 72.2131 65.3022L70.4715 70.5272L70.4674 70.5394L68.9327 75.0154C68.387 76.607 67.1583 77.8712 65.5829 78.462C65.5158 78.4871 65.4447 78.5 65.3731 78.5H30.1538C29.4079 78.5 28.7004 78.1687 28.2229 77.5956C27.4621 76.6827 27.4446 75.3617 28.181 74.4289L28.2218 74.3773C28.7138 73.754 29.4642 73.3904 30.2583 73.3904H57.2055H58.1974L58.5857 72.4777L62.9693 62.1764Z" fill="#064E3B" stroke="black" stroke-width="3"/>
<path d="M7.6134 8.73277H19.5212C20.4589 11.1607 22.1748 13.2238 24.4163 14.5882L24.6848 14.7517C25.7448 15.3969 26.9559 15.752 28.1965 15.7813L52.6159 16.3581C53.1726 16.3713 53.6663 16.7191 53.8662 17.2388C54.0271 17.6572 54.0641 18.113 53.9727 18.5519L53.5959 20.3606C53.2438 22.0503 53.1214 23.7797 53.2318 25.5021L54.1681 40.1089L53.2723 53.9044C53.1361 56.0024 53.2418 58.1092 53.5875 60.183L54.0123 62.732C54.0898 63.1974 54.0524 63.6746 53.9032 64.1222C53.659 64.855 52.9732 65.3492 52.2008 65.3492H28.4151C27.028 65.3492 25.6655 65.759 24.5084 66.5136C22.2062 68.015 20.4439 70.2307 19.5031 72.8013H7.63631C6.21218 70.3832 5.18238 67.7516 4.5874 65.0055L2.80294 56.7696L2.10783 47.6173C1.70651 42.3333 1.73226 37.0256 2.18482 31.7458L2.80139 24.5524L4.62633 16.1296C5.19391 13.51 6.20475 11.0086 7.6134 8.73277Z" fill="#10B981" stroke="black" stroke-width="3"/>
</svg>
